{
  "accessors": [
    {
      "bufferView": 2,
      "componentType": 5126,
      "count": 8072,
      "max": [
        -4.287179946899414,
        8.369830131530762,
        27.965200424194336
      ],
      "min": [
        -52.712100982666016,
        -40.055599212646484,
        0.18307100236415863
      ],
      "type": "VEC3"
    },
    {
      "bufferView": 2,
      "byteOffset": 96864,
      "componentType": 5126,
      "count": 8072,
      "max": [
        1.0,
        1.0,
        1.0
      ],
      "min": [
        -1.0,
        -1.0,
        -1.0
      ],
      "type": "VEC3"
    },
    {
      "bufferView": 1,
      "componentType": 5126,
      "count": 8072,
      "max": [
        61.60710144042969,
        57.81650161743164
      ],
      "min": [
        -31.40839958190918,
        -73.49909973144531
      ],
      "type": "VEC2"
    },
    {
      "bufferView": 0,
      "componentType": 5125,
      "count": 21660,
      "type": "SCALAR"
    },
    {
      "bufferView": 2,
      "byteOffset": 193728,
      "componentType": 5126,
      "count": 5571,
      "max": [
        -18.68939971923828,
        9.94441032409668,
        5.035999774932861
      ],
      "min": [
        -38.91469955444336,
        1.5688999891281128,
        -2.3841900542720396e-07
      ],
      "type": "VEC3"
    },
    {
      "bufferView": 2,
      "byteOffset": 260580,
      "componentType": 5126,
      "count": 5571,
      "max": [
        1.0,
        1.0,
        1.0
      ],
      "min": [
        -1.0,
        -1.0,
        -1.0
      ],
      "type": "VEC3"
    },
    {
      "bufferView": 1,
      "byteOffset": 64576,
      "componentType": 5126,
      "count": 5571,
      "max": [
        1.6836600303649902,
        5.247900009155273
      ],
      "min": [
        -8.938739776611328,
        -5.121840000152588
      ],
      "type": "VEC2"
    },
    {
      "bufferView": 0,
      "byteOffset": 86640,
      "componentType": 5125,
      "count": 15036,
      "type": "SCALAR"
    }
  ],
  "asset": {
    "extras": {
      "author": "HammerWorks (https://sketchfab.com/HammerWorks)",
      "license": "CC-BY-4.0 (http://creativecommons.org/licenses/by/4.0/)",
      "source": "https://sketchfab.com/3d-models/star-wars-tatooine-build-prop-8d2cf8dc844a4368af88998da42286c3",
      "title": "Star Wars: Tatooine Build Prop."
    },
    "generator": "Sketchfab-12.68.0",
    "version": "2.0"
  },
  "bufferViews": [
    {
      "buffer": 0,
      "byteLength": 146784,
      "name": "floatBufferViews",
      "target": 34963
    },
    {
      "buffer": 0,
      "byteLength": 109144,
      "byteOffset": 146784,
      "byteStride": 8,
      "name": "floatBufferViews",
      "target": 34962
    },
    {
      "buffer": 0,
      "byteLength": 327432,
      "byteOffset": 255928,
      "byteStride": 12,
      "name": "floatBufferViews",
      "target": 34962
    }
  ],
  "buffers": [
    {
      "byteLength": 583360,
      "uri": "scene.bin"
    }
  ],
  "materials": [
    {
      "doubleSided": true,
      "name": "MeshesstarWarsTatooineBuildProparch11Mtl",
      "pbrMetallicRoughness": {
        "metallicFactor": 0.0,
        "roughnessFactor": 0.6
      }
    }
  ],
  "meshes": [
    {
      "name": "Object_0",
      "primitives": [
        {
          "attributes": {
            "NORMAL": 1,
            "POSITION": 0,
            "TEXCOORD_0": 2
          },
          "indices": 3,
          "material": 0,
          "mode": 4
        }
      ]
    },
    {
      "name": "Object_1",
      "primitives": [
        {
          "attributes": {
            "NORMAL": 5,
            "POSITION": 4,
            "TEXCOORD_0": 6
          },
          "indices": 7,
          "material": 0,
          "mode": 4
        }
      ]
    }
  ],
  "nodes": [
    {
      "children": [
        1
      ],
      "matrix": [
        1.0,
        0.0,
        0.0,
        0.0,
        0.0,
        2.220446049250313e-16,
        -1.0,
        0.0,
        0.0,
        1.0,
        2.220446049250313e-16,
        0.0,
        0.0,
        0.0,
        0.0,
        1.0
      ],
      "name": "Sketchfab_model"
    },
    {
      "children": [
        2,
        3
      ],
      "name": "Star Wars tatooine Build Prop.obj.cleaner.materialmerger.gles"
    },
    {
      "mesh": 0,
      "name": "Object_2"
    },
    {
      "mesh": 1,
      "name": "Object_3"
    }
  ],
  "scene": 0,
  "scenes": [
    {
      "name": "Sketchfab_Scene",
      "nodes": [
        0
      ]
    }
  ]
}
